<?xml version="1.0" encoding="utf-8"?>
<!-- Generator: Adobe Illustrator 22.0.0, SVG Export Plug-In . SVG Version: 6.00 Build 0)  -->
<svg version="1.1" id="Слой_1" xmlns="http://www.w3.org/2000/svg" xmlns:xlink="http://www.w3.org/1999/xlink" x="0px" y="0px"
	 viewBox="0 0 981 230" style="enable-background:new 0 0 981 230;" xml:space="preserve" fill="#fff">
<style type="text/css">
	.st0{fill:#35CC62;}
	.st1{fill:none;}
	.st2{font-family:'HelveticaNeueCyr-Bold';}
	.st3{font-size:303.2061px;}
</style>
<g>
	<path d="M905.2,220.7H753.5V6.4h46.9v173.9h104.7V220.7z"/>
</g>
<g>
	<path class="st0" d="M907.3,45.5c16,0,26.7,12,26.7,30.4c0,25.9-23.7,39.4-40.3,52.1c-12.5,9.5-21.5,13-30.5,22.5h47.6
		c7.5-2.5,16-6.2,22.6-11.3c22.1-17.2,38.7-32.2,38.7-66.2c0-38.2-25.9-64.4-63.5-64.4c-41.6,0-68,30.4-68,78.2v4.5h36.3
		C877.9,60.3,887.5,45.5,907.3,45.5z"/>
	<rect x="937.6" y="180.5" class="st0" width="35.6" height="40.1"/>
</g>
<rect x="-15.3" y="5" class="st1" width="963.7" height="331"/>
<text transform="matrix(0.9924 0 0 1 -15.334 220.8799)" class="st2 st3">LEVE</text>
</svg>
